# xmcd CD database file
#
# Track frame offsets:
#	150
#	14439
#	30104
#
# Disc length: 666 seconds
#
# Revision: 0
# Processed by: cddbd v1.5.2PL0 Copyright (c) Steve Scherf et al.
# Submitted via: CDex 1.51
#
DISCID=13029803
DTITLE=Enya - Amarantine
DYEAR=2005
DGENRE=New Age
TTITLE0=Amarantine (Album Version)
TTITLE1=Boadicea (Single Version)
TTITLE2=Orinoco Flow
EXTD=YEAR: 2005
EXTT0=
EXTT1=
EXTT2=
PLAYORDER=
